<svg id="visual" viewBox="0 0 1920 1080" width="1920" height="1080" xmlns="http://www.w3.org/2000/svg" xmlns:xlink="http://www.w3.org/1999/xlink" version="1.1"><rect x="0" y="0" width="1920" height="1080" fill="#22223B"></rect><path d="M0 599L45.7 584.5C91.3 570 182.7 541 274.2 520.3C365.7 499.7 457.3 487.3 548.8 507C640.3 526.7 731.7 578.3 823 600.7C914.3 623 1005.7 616 1097 586C1188.3 556 1279.7 503 1371.2 502.5C1462.7 502 1554.3 554 1645.8 586C1737.3 618 1828.7 630 1874.3 636L1920 642L1920 1081L1874.3 1081C1828.7 1081 1737.3 1081 1645.8 1081C1554.3 1081 1462.7 1081 1371.2 1081C1279.7 1081 1188.3 1081 1097 1081C1005.7 1081 914.3 1081 823 1081C731.7 1081 640.3 1081 548.8 1081C457.3 1081 365.7 1081 274.2 1081C182.7 1081 91.3 1081 45.7 1081L0 1081Z" fill="#4a4e69"></path><path d="M0 596L45.7 583.5C91.3 571 182.7 546 274.2 564.3C365.7 582.7 457.3 644.3 548.8 673.7C640.3 703 731.7 700 823 696.3C914.3 692.7 1005.7 688.3 1097 666.3C1188.3 644.3 1279.7 604.7 1371.2 588.7C1462.7 572.7 1554.3 580.3 1645.8 599.5C1737.3 618.7 1828.7 649.3 1874.3 664.7L1920 680L1920 1081L1874.3 1081C1828.7 1081 1737.3 1081 1645.8 1081C1554.3 1081 1462.7 1081 1371.2 1081C1279.7 1081 1188.3 1081 1097 1081C1005.7 1081 914.3 1081 823 1081C731.7 1081 640.3 1081 548.8 1081C457.3 1081 365.7 1081 274.2 1081C182.7 1081 91.3 1081 45.7 1081L0 1081Z" fill="#5e5872"></path><path d="M0 731L45.7 704.3C91.3 677.7 182.7 624.3 274.2 598.8C365.7 573.3 457.3 575.7 548.8 598.2C640.3 620.7 731.7 663.3 823 691.3C914.3 719.3 1005.7 732.7 1097 733C1188.3 733.3 1279.7 720.7 1371.2 717.7C1462.7 714.7 1554.3 721.3 1645.8 714.7C1737.3 708 1828.7 688 1874.3 678L1920 668L1920 1081L1874.3 1081C1828.7 1081 1737.3 1081 1645.8 1081C1554.3 1081 1462.7 1081 1371.2 1081C1279.7 1081 1188.3 1081 1097 1081C1005.7 1081 914.3 1081 823 1081C731.7 1081 640.3 1081 548.8 1081C457.3 1081 365.7 1081 274.2 1081C182.7 1081 91.3 1081 45.7 1081L0 1081Z" fill="#726279"></path><path d="M0 756L45.7 760.7C91.3 765.3 182.7 774.7 274.2 755C365.7 735.3 457.3 686.7 548.8 686.5C640.3 686.3 731.7 734.7 823 738C914.3 741.3 1005.7 699.7 1097 677.5C1188.3 655.3 1279.7 652.7 1371.2 669.2C1462.7 685.7 1554.3 721.3 1645.8 744.3C1737.3 767.3 1828.7 777.7 1874.3 782.8L1920 788L1920 1081L1874.3 1081C1828.7 1081 1737.3 1081 1645.8 1081C1554.3 1081 1462.7 1081 1371.2 1081C1279.7 1081 1188.3 1081 1097 1081C1005.7 1081 914.3 1081 823 1081C731.7 1081 640.3 1081 548.8 1081C457.3 1081 365.7 1081 274.2 1081C182.7 1081 91.3 1081 45.7 1081L0 1081Z" fill="#836c80"></path><path d="M0 824L45.7 827C91.3 830 182.7 836 274.2 824.7C365.7 813.3 457.3 784.7 548.8 774.8C640.3 765 731.7 774 823 782.3C914.3 790.7 1005.7 798.3 1097 788C1188.3 777.7 1279.7 749.3 1371.2 749.5C1462.7 749.7 1554.3 778.3 1645.8 776C1737.3 773.7 1828.7 740.3 1874.3 723.7L1920 707L1920 1081L1874.3 1081C1828.7 1081 1737.3 1081 1645.8 1081C1554.3 1081 1462.7 1081 1371.2 1081C1279.7 1081 1188.3 1081 1097 1081C1005.7 1081 914.3 1081 823 1081C731.7 1081 640.3 1081 548.8 1081C457.3 1081 365.7 1081 274.2 1081C182.7 1081 91.3 1081 45.7 1081L0 1081Z" fill="#947887"></path><path d="M0 860L45.7 849.5C91.3 839 182.7 818 274.2 812.7C365.7 807.3 457.3 817.7 548.8 827C640.3 836.3 731.7 844.7 823 842C914.3 839.3 1005.7 825.7 1097 821.2C1188.3 816.7 1279.7 821.3 1371.2 819.8C1462.7 818.3 1554.3 810.7 1645.8 817.3C1737.3 824 1828.7 845 1874.3 855.5L1920 866L1920 1081L1874.3 1081C1828.7 1081 1737.3 1081 1645.8 1081C1554.3 1081 1462.7 1081 1371.2 1081C1279.7 1081 1188.3 1081 1097 1081C1005.7 1081 914.3 1081 823 1081C731.7 1081 640.3 1081 548.8 1081C457.3 1081 365.7 1081 274.2 1081C182.7 1081 91.3 1081 45.7 1081L0 1081Z" fill="#a3848e"></path><path d="M0 922L45.7 923.5C91.3 925 182.7 928 274.2 921.5C365.7 915 457.3 899 548.8 884C640.3 869 731.7 855 823 851C914.3 847 1005.7 853 1097 864.7C1188.3 876.3 1279.7 893.7 1371.2 898.5C1462.7 903.3 1554.3 895.7 1645.8 900C1737.3 904.3 1828.7 920.7 1874.3 928.8L1920 937L1920 1081L1874.3 1081C1828.7 1081 1737.3 1081 1645.8 1081C1554.3 1081 1462.7 1081 1371.2 1081C1279.7 1081 1188.3 1081 1097 1081C1005.7 1081 914.3 1081 823 1081C731.7 1081 640.3 1081 548.8 1081C457.3 1081 365.7 1081 274.2 1081C182.7 1081 91.3 1081 45.7 1081L0 1081Z" fill="#b19196"></path><path d="M0 971L45.7 974.5C91.3 978 182.7 985 274.2 979.3C365.7 973.7 457.3 955.3 548.8 946.5C640.3 937.7 731.7 938.3 823 935C914.3 931.7 1005.7 924.3 1097 923.7C1188.3 923 1279.7 929 1371.2 940.5C1462.7 952 1554.3 969 1645.8 970.2C1737.3 971.3 1828.7 956.7 1874.3 949.3L1920 942L1920 1081L1874.3 1081C1828.7 1081 1737.3 1081 1645.8 1081C1554.3 1081 1462.7 1081 1371.2 1081C1279.7 1081 1188.3 1081 1097 1081C1005.7 1081 914.3 1081 823 1081C731.7 1081 640.3 1081 548.8 1081C457.3 1081 365.7 1081 274.2 1081C182.7 1081 91.3 1081 45.7 1081L0 1081Z" fill="#bd9f9e"></path><path d="M0 982L45.7 990.3C91.3 998.7 182.7 1015.3 274.2 1013.7C365.7 1012 457.3 992 548.8 985.5C640.3 979 731.7 986 823 994.7C914.3 1003.3 1005.7 1013.7 1097 1010.2C1188.3 1006.7 1279.7 989.3 1371.2 980.7C1462.7 972 1554.3 972 1645.8 973.5C1737.3 975 1828.7 978 1874.3 979.5L1920 981L1920 1081L1874.3 1081C1828.7 1081 1737.3 1081 1645.8 1081C1554.3 1081 1462.7 1081 1371.2 1081C1279.7 1081 1188.3 1081 1097 1081C1005.7 1081 914.3 1081 823 1081C731.7 1081 640.3 1081 548.8 1081C457.3 1081 365.7 1081 274.2 1081C182.7 1081 91.3 1081 45.7 1081L0 1081Z" fill="#c9ada7"></path></svg>